<svg width="74" height="74" viewBox="0 0 74 74" fill="none" xmlns="http://www.w3.org/2000/svg">
<g clip-path="url(#clip0_1_134)">
<path d="M41.625 0H50.7825C51.4485 3.30687 53.28 7.47863 56.4944 11.618C59.6394 15.6741 63.8111 18.5 69.375 18.5V27.75C61.2674 27.75 55.1763 23.9853 50.875 19.2909V50.875C50.875 55.4487 49.5187 59.9197 46.9777 63.7226C44.4367 67.5255 40.8251 70.4894 36.5996 72.2397C32.374 73.99 27.7244 74.4479 23.2385 73.5557C18.7527 72.6634 14.6323 70.4609 11.3982 67.2268C8.16408 63.9928 5.96163 59.8723 5.06935 55.3865C4.17707 50.9007 4.63502 46.251 6.3853 42.0254C8.13557 37.7999 11.0996 34.1883 14.9024 31.6473C18.7053 29.1063 23.1763 27.75 27.75 27.75V37C25.0058 37 22.3232 37.8138 20.0415 39.3384C17.7597 40.863 15.9813 43.0299 14.9312 45.5653C13.881 48.1006 13.6062 50.8904 14.1416 53.5819C14.677 56.2734 15.9985 58.7457 17.9389 60.6861C19.8794 62.6266 22.3516 63.948 25.0431 64.4834C27.7346 65.0188 30.5244 64.744 33.0597 63.6938C35.5951 62.6437 37.762 60.8653 39.2867 58.5835C40.8113 56.3018 41.625 53.6192 41.625 50.875V0Z" fill="white"/>
</g>
<defs>
<clipPath id="clip0_1_134">
<rect width="74" height="74" fill="white"/>
</clipPath>
</defs>
</svg>
