<svg width="74" height="50" viewBox="0 0 74 50" fill="none" xmlns="http://www.w3.org/2000/svg">
<path d="M72.4583 7.74521C72.0393 6.2505 71.2231 4.89727 70.0965 3.82937C68.938 2.72863 67.5182 1.94125 65.9709 1.54154C60.1805 0.0152896 36.9814 0.0152899 36.9814 0.0152899C27.3101 -0.0947461 17.641 0.38922 8.02895 1.46446C6.4817 1.8937 5.06452 2.69867 3.90345 3.80779C2.76262 4.90546 1.93628 6.25904 1.50462 7.74212C0.46767 13.3283 -0.0361498 19.0004 -5.01435e-05 24.682C-0.0370501 30.3584 0.465533 36.0286 1.50462 41.6218C1.92703 43.0987 2.75028 44.4461 3.8942 45.5345C5.03812 46.623 6.46262 47.4092 8.02895 47.8255C13.8965 49.3486 36.9814 49.3486 36.9814 49.3486C46.6652 49.4588 56.3465 48.9748 65.9709 47.8995C67.5182 47.4998 68.938 46.7124 70.0965 45.6116C71.2373 44.5232 72.0482 43.1696 72.4552 41.6958C73.5192 36.1117 74.0366 30.4373 73.9999 24.7529C74.08 19.0444 73.5633 13.3432 72.4583 7.74212V7.74521ZM29.6061 35.2393V14.1277L48.9078 24.685L29.6061 35.2393Z" fill="white"/>
</svg>
